<?xml version="1.0" encoding="utf-8"?>
<!-- Generator: Adobe Illustrator 16.0.0, SVG Export Plug-In . SVG Version: 6.00 Build 0)  -->
<!DOCTYPE svg PUBLIC "-//W3C//DTD SVG 1.1//EN" "http://www.w3.org/Graphics/SVG/1.1/DTD/svg11.dtd">
<svg version="1.1" id="Layer_1" xmlns="http://www.w3.org/2000/svg" xmlns:xlink="http://www.w3.org/1999/xlink" x="0px" y="0px"
	 width="13662.99px" height="2040.939px" viewBox="0 0 13662.99 2040.939" enable-background="new 0 0 13662.99 2040.939"
	 xml:space="preserve">
<g>
	<g>
		<rect x="12164.859" y="559.51" fill="#333366" width="195.234" height="863.523"/>
		<path fill="#333366" d="M12704.266,876.957h-165.203v535.686l167.703-2.504l-2.5-295.391c0,0,165.203-225.266,187.75-32.518
			v340.803h182.719v-400.885c0,0-40.063-355.449-370.469-65.092V876.957z"/>
		<path fill="#333366" d="M13427.672,681.102l-178.172,63.457v127.4h-79.656v157.691h79.656l-7.063,275.352
			c0,0,10.031,115.943,107.625,118.031h195.266c0,0-110.141-42.953-112.656-158.086l-5-235.297l145.328,3.363V871.959h-145.328
			V681.102z"/>
	</g>
</g>
<g>
	<g>
		<path fill="#17A8AA" d="M1474.172,246.283c86.016,0,167,16.502,243,49.473c75.969,32.992,141.922,77.408,197.875,133.326
			c55.891,55.92,100.313,121.51,133.328,196.773c32.938,75.273,49.438,155.209,49.438,239.783v1101.094h-425.797V865.639
			c0-54.469-19.375-100.334-58.078-137.641c-38.703-37.26-85.297-55.908-139.766-55.908c-54.5,0-101.078,18.648-139.797,55.908
			c-38.719,37.307-58.063,83.172-58.063,137.641v1101.094H854.797V865.639c0-54.469-19.344-100.334-58.063-137.641
			c-38.703-37.26-85.328-55.908-139.797-55.908c-54.5,0-101.078,18.648-139.766,55.908c-38.703,37.307-58.063,83.172-58.063,137.641
			v1101.094H37.594V865.639c0-84.574,16.469-164.51,49.469-239.783c32.953-75.264,77.406-140.854,133.328-196.773
			c55.906-55.918,121.516-100.334,196.781-133.326c75.266-32.971,155.156-49.473,239.766-49.473
			c80.281,0,154.844,13.986,223.672,41.945c68.813,27.949,130.453,65.58,184.953,112.895
			c55.891-47.314,118.625-84.945,188.156-112.895C1323.266,260.27,1396.734,246.283,1474.172,246.283z"/>
		<path fill="#17A8AA" d="M2708.547,887.139h688.172c-37.281-67.363-89.234-121.498-155.906-162.354
			c-66.672-40.854-140.875-61.299-222.578-61.299c-60.219,0-116.875,11.492-169.891,34.418
			c-53.078,22.951-99.672,54.506-139.797,94.617c-40.156,40.148-71.719,86.768-94.625,139.787
			c-22.953,53.055-34.406,109.682-34.406,169.914c0,60.188,11.453,116.848,34.406,169.869
			c22.906,53.066,54.469,99.684,94.625,139.809c40.125,40.125,86.719,71.691,139.797,94.605
			c53.016,22.939,109.672,34.42,169.891,34.42h666.656l-430.109,425.807h-236.547c-119.031,0-231.188-22.59-336.578-67.748
			s-197.141-106.805-275.25-184.943c-78.172-78.139-139.797-169.893-184.953-275.283c-45.156-105.367-67.75-217.529-67.75-336.535
			c0-119.004,22.594-231.215,67.75-336.582c45.156-105.379,106.781-197.107,184.953-275.27
			c78.109-78.127,169.859-139.787,275.25-184.932c105.391-45.17,217.547-67.748,336.578-67.748
			c118.984,0,231.172,22.578,336.547,67.748c105.375,45.145,197.125,106.805,275.266,184.932
			c78.125,78.162,139.813,169.891,184.953,275.27c45.172,105.367,67.75,217.578,67.75,336.582v210.734h-744.094L2708.547,887.139z"
			/>
		<path fill="#17A8AA" d="M5650.469,74.236v1036.568c0,119.027-22.563,230.496-67.734,334.402
			c-45.172,103.975-106.453,194.639-183.859,272.057c-77.438,77.42-168.484,138.373-273.125,182.787
			c-104.688,44.463-216.5,66.682-335.484,66.682c-119.031,0-230.469-22.219-334.422-66.682
			c-103.969-44.414-194.625-105.367-272.047-182.787c-77.406-77.418-138.375-168.082-182.797-272.057
			c-44.453-103.906-66.672-215.375-66.672-334.402c0-117.533,22.219-228.664,66.672-333.334
			c44.422-104.639,105.391-196.031,182.797-274.193c77.422-78.139,168.078-139.785,272.047-184.955
			c103.953-45.156,215.391-67.736,334.422-67.736l430.094,425.807h-430.094c-58.813,0-114.359,11.492-166.688,34.408
			c-52.344,22.949-97.828,53.773-136.547,92.482c-38.719,38.711-69.563,84.609-92.469,137.631
			c-22.969,53.055-34.422,109.682-34.422,169.891c0,58.818,11.453,114.344,34.422,166.668
			c22.906,52.348,53.75,97.852,92.469,136.563c38.719,38.709,84.203,69.557,136.547,92.471
			c52.328,22.939,107.875,34.42,166.688,34.42c60.203,0,116.828-11.48,169.891-34.42c53.016-22.914,98.922-53.762,137.609-92.471
			c38.734-38.711,69.547-84.215,92.484-136.563c22.938-52.324,34.422-107.85,34.422-166.668V74.236H5650.469z"/>
		<path fill="#17A8AA" d="M6157.984,246.283v1720.449h-425.797V667.801L6157.984,246.283z"/>
		<path fill="#17A8AA" d="M7095.594,1966.732c-119,0-230.438-22.59-334.375-67.748c-103.984-45.158-195.016-106.805-273.125-184.943
			c-78.188-78.139-139.813-169.15-184.953-273.102c-45.172-103.953-67.75-215.42-67.75-334.449
			c0-118.971,22.578-231.168,67.75-336.535c45.141-105.391,106.766-197.133,184.953-275.281
			c78.109-78.127,169.141-139.787,273.125-184.945c103.938-45.156,215.375-67.746,334.375-67.746
			c116.156,0,226.531,21.883,331.203,65.59c104.656,43.754,197.844,106.457,279.578,188.18l-301.094,301.072
			c-41.594-41.563-88.906-72.746-141.922-93.539c-53.047-20.77-108.984-31.195-167.766-31.195s-114.703,11.494-167.734,34.42
			c-53.063,22.938-99.281,53.762-138.719,92.461c-39.438,38.721-70.609,84.609-93.531,137.641
			c-22.938,53.043-34.406,109.67-34.406,169.879c0,60.234,11.469,116.871,34.406,169.914c22.922,53.045,54.094,98.92,93.531,137.631
			c39.438,38.709,85.656,69.557,138.719,92.471c53.031,22.939,108.953,34.42,167.734,34.42s114.719-11.109,167.766-33.33
			c53.016-22.219,100.328-54.109,141.922-95.695l301.094,301.074c-81.734,81.709-174.922,144.424-279.578,188.145
			C7322.125,1944.885,7211.75,1966.732,7095.594,1966.732z"/>
		<path fill="#17A8AA" d="M8418.172,246.283c118.984,0,230.828,22.58,335.5,67.748c104.625,45.17,195.688,106.818,273.094,184.943
			c77.422,78.15,138.734,169.568,183.891,274.193c45.172,104.672,67.734,215.791,67.734,333.322v860.242h-425.797V1106.49
			c0-58.771-11.484-114.297-34.406-166.645c-22.938-52.324-53.781-97.852-92.469-136.563
			c-38.734-38.709-84.609-69.533-137.625-92.482c-53.063-22.916-109.703-34.408-169.922-34.408
			c-58.781,0-114.328,11.492-166.656,34.408c-52.344,22.949-97.859,53.773-136.563,92.482
			c-38.719,38.711-69.563,84.238-92.453,136.563c-22.953,52.348-34.422,107.873-34.422,166.645
			c0,58.818,11.469,114.344,34.422,166.668c22.891,52.371,53.734,97.875,92.453,136.563c38.703,38.732,84.219,69.58,136.563,92.473
			c52.328,22.984,107.875,34.418,166.656,34.418h430.125l-430.125,430.121c-119.016-1.438-230.469-24.725-334.391-69.904
			c-103.953-45.135-194.625-106.459-272.063-183.854c-77.422-77.443-138.375-168.084-182.781-272.035
			c-44.469-103.953-66.656-215.42-66.656-334.449c0-117.531,22.188-228.65,66.656-333.322
			c44.406-104.625,105.359-196.043,182.781-274.193c77.438-78.125,168.109-139.773,272.063-184.943
			C8187.703,268.863,8299.156,246.283,8418.172,246.283z"/>
		<path fill="#17A8AA" d="M10237.516,672.09h-219.359v1294.643h-425.813V672.09h-412.906V246.283h1483.875L10237.516,672.09z"/>
		<path fill="#17A8AA" d="M10837.531,887.139h688.188c-37.313-67.363-89.266-121.498-155.953-162.354
			c-66.656-40.854-140.828-61.299-222.563-61.299c-60.203,0-116.875,11.492-169.891,34.418
			c-53.047,22.951-99.656,54.506-139.781,94.617c-40.172,40.148-71.719,86.768-94.641,139.787
			c-22.938,53.055-34.406,109.682-34.406,169.914c0,60.188,11.469,116.848,34.406,169.869
			c22.922,53.066,54.469,99.684,94.641,139.809c40.125,40.125,86.734,71.691,139.781,94.605
			c53.016,22.939,109.688,34.42,169.891,34.42h2477.141l-430.125,425.807h-2047.016c-119.031,0-231.188-22.59-336.563-67.748
			c-105.359-45.158-197.156-106.805-275.25-184.943c-78.188-78.139-139.813-169.893-184.969-275.283
			c-45.156-105.367-67.75-217.529-67.75-336.535c0-119.004,22.594-231.215,67.75-336.582
			c45.156-105.379,106.781-197.107,184.969-275.27c78.094-78.127,169.891-139.787,275.25-184.932
			c105.375-45.17,217.531-67.748,336.563-67.748c118.984,0,231.188,22.578,336.563,67.748
			c105.359,45.145,197.109,106.805,275.281,184.932c78.109,78.162,139.766,169.891,184.938,275.27
			c45.156,105.367,67.734,217.578,67.734,336.582v210.734h-744.094L10837.531,887.139z"/>
	</g>
	<g opacity="0.7">
		<linearGradient id="SVGID_1_" gradientUnits="userSpaceOnUse" x1="1067.7034" y1="1249.8945" x2="1067.7034" y2="246.2832">
			<stop  offset="0" style="stop-color:#FFFFFF"/>
			<stop  offset="1" style="stop-color:#323466;stop-opacity:0"/>
		</linearGradient>
		<path fill="url(#SVGID_1_)" d="M2048.375,625.855c-33.016-75.264-77.438-140.854-133.328-196.773
			c-55.953-55.918-121.906-100.334-197.875-133.326c-76-32.971-156.984-49.473-243-49.473c-77.438,0-150.906,13.986-220.453,41.945
			c-69.531,27.949-132.266,65.58-188.156,112.895c-54.5-47.314-116.141-84.945-184.953-112.895
			c-68.828-27.959-143.391-41.945-223.672-41.945c-84.609,0-164.5,16.502-239.766,49.473
			c-75.266,32.992-140.875,77.408-196.781,133.326c-55.922,55.92-100.375,121.51-133.328,196.773
			c-33,75.273-49.469,155.209-49.469,239.783v2.4c128.188,38.293,269.016,75.217,421.516,110.645V865.639
			c0-54.469,19.359-100.334,58.063-137.641c38.688-37.26,85.266-55.908,139.766-55.908c54.469,0,101.094,18.648,139.797,55.908
			c38.719,37.307,58.063,83.172,58.063,137.641v196.646c133.953,25.744,274.625,50.514,421.516,74.217V865.639
			c0-54.469,19.344-100.334,58.063-137.641c38.719-37.26,85.297-55.908,139.797-55.908c54.469,0,101.063,18.648,139.766,55.908
			c38.703,37.307,58.078,83.172,58.078,137.641v329.938c137.547,18.996,279.641,37.133,425.797,54.318V865.639
			C2097.813,781.064,2081.313,701.129,2048.375,625.855z"/>
		<linearGradient id="SVGID_2_" gradientUnits="userSpaceOnUse" x1="3018.2266" y1="1312.957" x2="3018.2266" y2="237.6914">
			<stop  offset="0" style="stop-color:#FFFFFF"/>
			<stop  offset="1" style="stop-color:#323466;stop-opacity:0"/>
		</linearGradient>
		<path fill="url(#SVGID_2_)" d="M2579.516,1102.223c0-60.232,11.453-116.859,34.406-169.914
			c22.906-53.02,54.469-99.639,94.625-139.787c40.125-40.111,86.719-71.666,139.797-94.617
			c53.016-22.926,109.672-34.418,169.891-34.418c81.703,0,155.906,20.445,222.578,61.299
			c66.672,40.855,118.625,94.99,155.906,162.354h-688.172l430.109,425.818h744.094v-210.734c0-119.004-22.578-231.215-67.75-336.582
			c-45.141-105.379-106.828-197.107-184.953-275.27c-78.141-78.127-169.891-139.787-275.266-184.932
			c-105.375-45.17-217.563-67.748-336.547-67.748c-119.031,0-231.188,22.578-336.578,67.748
			c-105.391,45.145-197.141,106.805-275.25,184.932c-78.172,78.162-139.797,169.891-184.953,275.27
			c-45.156,105.367-67.75,217.578-67.75,336.582c0,53.322,4.797,105.182,13.859,155.768
			c150.266,17.209,304.75,33.443,463.219,48.658c-6-11.225-11.719-22.682-16.859-34.557
			C2590.969,1219.07,2579.516,1162.41,2579.516,1102.223z"/>
		<linearGradient id="SVGID_3_" gradientUnits="userSpaceOnUse" x1="4577.3438" y1="1429.459" x2="4577.3438" y2="250.5864">
			<stop  offset="0" style="stop-color:#FFFFFF"/>
			<stop  offset="1" style="stop-color:#323466;stop-opacity:0"/>
		</linearGradient>
		<path fill="url(#SVGID_3_)" d="M4394.563,1277.473c-22.969-52.324-34.422-107.85-34.422-166.668
			c0-60.209,11.453-116.836,34.422-169.891c22.906-53.021,53.75-98.92,92.469-137.631c38.719-38.709,84.203-69.533,136.547-92.482
			c52.328-22.916,107.875-34.408,166.688-34.408h430.094l-430.094-425.807c-119.031,0-230.469,22.58-334.422,67.736
			c-103.969,45.17-194.625,106.816-272.047,184.955c-77.406,78.162-138.375,169.555-182.797,274.193
			c-44.453,104.67-66.672,215.801-66.672,333.334c0,104.162,17.016,202.523,51.063,295.135
			c170.125,8.953,343.094,16.77,518.625,23.52c-5.703-5.104-11.563-9.998-16.984-15.424
			C4448.313,1375.324,4417.469,1329.82,4394.563,1277.473z"/>
		<linearGradient id="SVGID_4_" gradientUnits="userSpaceOnUse" x1="5355.4609" y1="1455.8516" x2="5355.4609" y2="74.2368">
			<stop  offset="0" style="stop-color:#FFFFFF"/>
			<stop  offset="1" style="stop-color:#323466;stop-opacity:0"/>
		</linearGradient>
		<path fill="url(#SVGID_4_)" d="M5650.469,1110.805V74.236h-425.797v1036.568c0,58.818-11.484,114.344-34.422,166.668
			c-22.938,52.348-53.75,97.852-92.484,136.563c-11.703,11.713-24.281,22.451-37.313,32.725
			c170.5,4.105,343.063,7.121,517.359,9.092c1.609-3.57,3.359-7.027,4.922-10.645
			C5627.906,1341.301,5650.469,1229.832,5650.469,1110.805z"/>
		<linearGradient id="SVGID_5_" gradientUnits="userSpaceOnUse" x1="5945.0859" y1="1458.4727" x2="5945.0859" y2="246.2837">
			<stop  offset="0" style="stop-color:#FFFFFF"/>
			<stop  offset="1" style="stop-color:#323466;stop-opacity:0"/>
		</linearGradient>
		<path fill="url(#SVGID_5_)" d="M5732.188,667.801v789.467c102.922,0.787,206.422,1.205,310.453,1.205
			c38.547,0,76.969-0.092,115.344-0.186V246.283L5732.188,667.801z"/>
		<linearGradient id="SVGID_6_" gradientUnits="userSpaceOnUse" x1="6970.8828" y1="1457.5918" x2="6970.8828" y2="241.9829">
			<stop  offset="0" style="stop-color:#FFFFFF"/>
			<stop  offset="1" style="stop-color:#323466;stop-opacity:0"/>
		</linearGradient>
		<path fill="url(#SVGID_6_)" d="M6695.609,1276.404c-22.938-53.043-34.406-109.68-34.406-169.914
			c0-60.209,11.469-116.836,34.406-169.879c22.922-53.031,54.094-98.92,93.531-137.641c39.438-38.699,85.656-69.523,138.719-92.461
			c53.031-22.926,108.953-34.42,167.734-34.42s114.719,10.426,167.766,31.195c53.016,20.793,100.328,51.977,141.922,93.539
			l301.094-301.072c-81.734-81.723-174.922-144.426-279.578-188.18c-104.672-43.707-215.047-65.59-331.203-65.59
			c-119,0-230.438,22.59-334.375,67.746c-103.984,45.158-195.016,106.818-273.125,184.945
			c-78.188,78.148-139.813,169.891-184.953,275.281c-45.172,105.367-67.75,217.564-67.75,336.535
			c0,119.029,22.578,230.496,67.75,334.449c2.453,5.611,5.156,11.086,7.703,16.652c175.703-1.113,349.719-3.34,521.828-6.68
			c-15.219-11.457-29.938-23.518-43.531-36.877C6749.703,1375.324,6718.531,1329.449,6695.609,1276.404z"/>
		<linearGradient id="SVGID_7_" gradientUnits="userSpaceOnUse" x1="7403.2344" y1="1436.7168" x2="7403.2344" y2="1411.9004">
			<stop  offset="0" style="stop-color:#FFFFFF"/>
			<stop  offset="1" style="stop-color:#323466;stop-opacity:0"/>
		</linearGradient>
		<path fill="url(#SVGID_7_)" d="M7378.047,1436.717c16.797-0.578,33.609-1.113,50.375-1.67l-23.141-23.146
			C7396.516,1420.668,7387.328,1428.785,7378.047,1436.717z"/>
		<linearGradient id="SVGID_8_" gradientUnits="userSpaceOnUse" x1="8420.3359" y1="1427.7891" x2="8420.3359" y2="246.2837">
			<stop  offset="0" style="stop-color:#FFFFFF"/>
			<stop  offset="1" style="stop-color:#323466;stop-opacity:0"/>
		</linearGradient>
		<path fill="url(#SVGID_8_)" d="M9210.656,773.168c-45.156-104.625-106.469-196.043-183.891-274.193
			c-77.406-78.125-168.469-139.773-273.094-184.943c-104.672-45.168-216.516-67.748-335.5-67.748
			c-119.016,0-230.469,22.58-334.391,67.748c-103.953,45.17-194.625,106.818-272.063,184.943
			c-77.422,78.15-138.375,169.568-182.781,274.193c-44.469,104.672-66.656,215.791-66.656,333.322
			c0,114.064,20.609,221.104,61.438,321.299c164.781-6.494,327.297-13.986,487.234-22.43
			c-36.734-37.805-66.375-81.732-88.453-132.201c-22.953-52.324-34.422-107.85-34.422-166.668
			c0-58.771,11.469-114.297,34.422-166.645c22.891-52.324,53.734-97.852,92.453-136.563c38.703-38.709,84.219-69.533,136.563-92.482
			c52.328-22.916,107.875-34.408,166.656-34.408c60.219,0,116.859,11.492,169.922,34.408
			c53.016,22.949,98.891,53.773,137.625,92.482c38.688,38.711,69.531,84.238,92.469,136.563
			c22.922,52.348,34.406,107.873,34.406,166.645v251.555c144.656-10.877,286.641-22.566,425.797-35.021V1106.49
			C9278.391,988.959,9255.828,877.84,9210.656,773.168z"/>
		<linearGradient id="SVGID_9_" gradientUnits="userSpaceOnUse" x1="9921.375" y1="1293.1025" x2="9921.375" y2="246.2827">
			<stop  offset="0" style="stop-color:#FFFFFF"/>
			<stop  offset="1" style="stop-color:#323466;stop-opacity:0"/>
		</linearGradient>
		<path fill="url(#SVGID_9_)" d="M10237.516,672.09l425.797-425.807H9179.438V672.09h412.906v621.014
			c145.531-14.75,287.578-30.383,425.813-46.826V672.09H10237.516z"/>
		<linearGradient id="SVGID_10_" gradientUnits="userSpaceOnUse" x1="11133.8672" y1="1212.252" x2="11133.8672" y2="237.6909">
			<stop  offset="0" style="stop-color:#FFFFFF"/>
			<stop  offset="1" style="stop-color:#323466;stop-opacity:0"/>
		</linearGradient>
		<path fill="url(#SVGID_10_)" d="M11759.047,490.371c-78.172-78.127-169.922-139.787-275.281-184.932
			c-105.375-45.17-217.578-67.748-336.563-67.748c-119.031,0-231.188,22.578-336.563,67.748
			c-105.359,45.145-197.156,106.805-275.25,184.932c-78.188,78.162-139.813,169.891-184.969,275.27
			c-45.156,105.367-67.75,217.578-67.75,336.582c0,37.389,2.5,73.986,6.953,110.029c145.406-19.135,286.016-39.289,421.688-60.303
			c-1.813-16.328-2.828-32.889-2.828-49.727c0-60.232,11.469-116.859,34.406-169.914c22.922-53.02,54.469-99.639,94.641-139.787
			c40.125-40.111,86.734-71.666,139.781-94.617c53.016-22.926,109.688-34.418,169.891-34.418
			c81.734,0,155.906,20.445,222.563,61.299c66.688,40.855,118.641,94.99,155.953,162.354h-688.188l210.906,208.799
			c357.094-63.492,671.828-133.779,936.625-209.586c-10.547-41.18-24.234-81.42-41.078-120.711
			C11898.813,660.262,11837.156,568.533,11759.047,490.371z"/>
	</g>
</g>
</svg>
