<?xml version="1.0" encoding="utf-8"?>
<!-- Generator: Adobe Illustrator 16.0.0, SVG Export Plug-In . SVG Version: 6.00 Build 0)  -->
<!DOCTYPE svg PUBLIC "-//W3C//DTD SVG 1.1//EN" "http://www.w3.org/Graphics/SVG/1.1/DTD/svg11.dtd">
<svg version="1.1" id="Layer_1" xmlns="http://www.w3.org/2000/svg" xmlns:xlink="http://www.w3.org/1999/xlink" x="0px" y="0px"
	 width="152.8px" height="155px" viewBox="0 0 152.8 155" enable-background="new 0 0 152.8 155" xml:space="preserve">
<g>
	<g>
		<path fill="#18A8AA" d="M93.632,23.356c1.207,0,2.187-0.981,2.187-2.189v-6.615c0-1.21-0.979-2.189-2.187-2.189
			c-1.21,0-2.191,0.979-2.191,2.189v6.615C91.441,22.375,92.422,23.356,93.632,23.356z M82.855,23.762
			c0.6,1.065,1.945,1.417,2.983,0.833c1.053-0.596,1.426-1.93,0.832-2.984l-2.776-4.924c-0.597-1.052-1.932-1.425-2.985-0.83
			c-1.053,0.594-1.424,1.929-0.832,2.982L82.855,23.762z M101.425,24.595c1.033,0.582,2.382,0.232,2.98-0.833l2.776-4.923
			c0.595-1.054,0.224-2.389-0.829-2.982c-1.055-0.595-2.389-0.222-2.985,0.83l-2.776,4.924
			C99.995,22.665,100.369,23.999,101.425,24.595z M143.522,84.75l-17.755-5.917c-1.006-0.336-1.813-1.092-2.22-2.077l-9.894-24.069
			c-1.693-4.123-5.666-6.786-10.129-6.786h-0.112v-3.942c0-5.395-4.388-9.782-9.78-9.782c-5.396,0-9.783,4.387-9.783,9.782V45.9
			H68.97c-0.005,0-0.008,0-0.012,0c-0.005,0-0.009,0-0.009,0H12.455c-6.037,0-10.949,4.912-10.949,10.95v14.454
			c0,1.21,0.982,2.19,2.191,2.19c1.21,0,2.189-0.98,2.189-2.19V56.85c0-3.623,2.948-6.568,6.569-6.568h54.31v47.302H5.886V81.525
			c0-1.21-0.979-2.193-2.189-2.193c-1.209,0-2.191,0.983-2.191,2.193v34.454c0,6.037,4.913,10.949,10.949,10.949h5.611
			c1.086,9.114,8.856,16.204,18.259,16.204s17.176-7.09,18.261-16.204h39.91c1.083,9.114,8.859,16.204,18.26,16.204
			c9.402,0,17.175-7.09,18.26-16.204h9.041c6.036,0,10.95-4.912,10.95-10.949V95.136C151.007,90.414,148,86.239,143.522,84.75
			L143.522,84.75z M36.325,138.756c-7.729,0-14.014-6.288-14.014-14.017c0-7.73,6.285-14.016,14.014-14.016
			c7.73,0,14.016,6.285,14.016,14.016C50.341,132.468,44.055,138.756,36.325,138.756z M66.765,122.549H54.586
			c-1.085-9.114-8.859-16.206-18.261-16.206s-17.172,7.092-18.259,16.206h-5.611c-3.621,0-6.569-2.946-6.569-6.569v-14.015h60.879
			V122.549z M88.227,41.958c0-2.979,2.424-5.401,5.405-5.401c2.976,0,5.399,2.422,5.399,5.401V45.9H88.227V41.958z M112.756,138.756
			c-7.73,0-14.016-6.288-14.016-14.017c0-7.73,6.285-14.016,14.016-14.016c7.728,0,14.016,6.285,14.016,14.016
			C126.772,132.468,120.484,138.756,112.756,138.756z M146.629,97.584h-33.405c-1.21,0-2.189,0.979-2.189,2.189
			c0,1.209,0.979,2.191,2.189,2.191h33.405v14.015c0,3.623-2.95,6.569-6.572,6.569h-9.041c-1.085-9.114-8.857-16.206-18.26-16.206
			c-9.4,0-17.177,7.092-18.26,16.206h-23.35v-20.584h31.854c1.21,0,2.194-0.982,2.194-2.191c0-1.21-0.984-2.189-2.194-2.189H71.147
			V50.282h32.378c2.678,0,5.063,1.596,6.077,4.07l9.896,24.068c0.888,2.164,2.671,3.83,4.886,4.568l17.755,5.914
			c2.688,0.896,4.491,3.401,4.491,6.233V97.584z M105.519,56.948c-0.557-1.389-1.888-2.289-3.384-2.289H79.177
			c-2.011,0-3.649,1.639-3.649,3.651v20.292c0,2.015,1.639,3.65,3.649,3.65h31.122c2.522,0.019,4.353-2.675,3.39-5.014
			L105.519,56.948z M79.908,77.874V59.04h21.731l7.582,18.834H79.908z M112.756,118.167c-3.622,0-6.572,2.948-6.572,6.572
			s2.95,6.569,6.572,6.569c3.624,0,6.567-2.945,6.567-6.569S116.38,118.167,112.756,118.167z M112.756,126.929
			c-1.207,0-2.189-0.982-2.189-2.189c0-1.206,0.982-2.19,2.189-2.19s2.189,0.984,2.189,2.19
			C114.946,125.946,113.963,126.929,112.756,126.929z M36.325,118.167c-3.622,0-6.568,2.948-6.568,6.572s2.946,6.569,6.568,6.569
			c3.625,0,6.572-2.945,6.572-6.569S39.951,118.167,36.325,118.167z M36.325,126.929c-1.206,0-2.187-0.982-2.187-2.189
			c0-1.206,0.98-2.19,2.187-2.19c1.209,0,2.191,0.984,2.191,2.19C38.517,125.946,37.535,126.929,36.325,126.929z"/>
	</g>
	<path fill="#18A8AA" d="M33.671,73.212c0-6.262,4.182-11.539,9.904-13.207c-0.524-0.061-1.055-0.101-1.595-0.101
		c-7.604,0-13.767,6.164-13.767,13.766c0,7.603,6.162,13.767,13.767,13.767c1.339,0,2.633-0.202,3.86-0.56
		C38.991,86.086,33.671,80.274,33.671,73.212z"/>
</g>
</svg>
