<?xml version="1.0" encoding="utf-8"?>
<!-- Generator: Adobe Illustrator 16.0.0, SVG Export Plug-In . SVG Version: 6.00 Build 0)  -->
<!DOCTYPE svg PUBLIC "-//W3C//DTD SVG 1.1//EN" "http://www.w3.org/Graphics/SVG/1.1/DTD/svg11.dtd">
<svg version="1.1" id="Layer_1" xmlns="http://www.w3.org/2000/svg" xmlns:xlink="http://www.w3.org/1999/xlink" x="0px" y="0px"
	 width="152.8px" height="155px" viewBox="0 0 152.8 155" enable-background="new 0 0 152.8 155" xml:space="preserve">
<g>
	<g>
		<g>
			<path fill="#18A8AA" d="M46.465,97.853c-1.019,0-1.836,0.878-1.836,1.959v3.557c0,1.084,0.818,1.96,1.836,1.96
				c1.013,0,1.836-0.876,1.836-1.96v-3.557C48.302,98.73,47.478,97.853,46.465,97.853z"/>
			<path fill="#18A8AA" d="M81.007,133.937H5.164v-6.843h70.968c-0.733-1.265-1.403-2.57-2.015-3.918H61.202V71.202
				c0-3.239-2.472-5.876-5.51-5.876H22.542c-3.038,0-5.509,2.637-5.509,5.876v51.974H9.688V36.543h6.417
				c1.013,0,1.836-0.877,1.836-1.958c0-1.081-0.823-1.959-1.836-1.959H5.164v-6.842h35.724c-0.144,1.118-0.217,2.262-0.217,3.422
				c0,1.159,0.073,2.301,0.217,3.42H24.674c-1.018,0-1.836,0.878-1.836,1.959c0,1.082,0.818,1.958,1.836,1.958h17.024
				C44.647,46.8,53.609,54.277,64.177,54.277c10.569,0,19.529-7.477,22.477-17.734h32.011V60.15c1.247,0.229,2.469,0.523,3.675,0.87
				V36.543h0.969c1.961,0,3.554-1.7,3.554-3.787v-7.103c0-2.09-1.593-3.787-3.554-3.787H86.654
				C83.707,11.61,74.746,4.132,64.177,4.132c-10.568,0-19.53,7.478-22.479,17.734H5.041c-1.956,0-3.549,1.697-3.549,3.787v7.103
				c-0.017,2.533,2.264,4.161,4.523,3.787v86.633c-2.277-0.334-4.523,1.215-4.523,3.787v7.104c0,2.09,1.593,3.786,3.549,3.786H84.82
				C83.465,136.643,82.209,135.319,81.007,133.937z M40.955,69.243h14.737c1.013,0,1.836,0.881,1.836,1.959v51.974H40.955V69.243z
				 M20.706,71.202c0-1.079,0.82-1.959,1.836-1.959h14.739v53.933H20.706V71.202z M87.464,25.783h35.723v6.842H87.464
				c0.141-1.12,0.218-2.261,0.218-3.42C87.682,28.045,87.605,26.901,87.464,25.783z M64.177,8.049
				c10.935,0,19.832,9.492,19.832,21.156c0,11.663-8.897,21.155-19.832,21.155c-10.938,0-19.834-9.492-19.834-21.155
				C44.343,17.541,53.239,8.049,64.177,8.049z"/>
			<path fill="#18A8AA" d="M31.771,97.853c-1.017,0-1.836,0.878-1.836,1.959v3.557c0,1.084,0.82,1.96,1.836,1.96
				c1.016,0,1.838-0.876,1.838-1.96v-3.557C33.609,98.73,32.787,97.853,31.771,97.853z"/>
		</g>
		
			<ellipse fill="none" stroke="#18A8AA" stroke-width="2" stroke-miterlimit="10" cx="112.192" cy="104.625" rx="41.609" ry="44.382"/>
	</g>
	<g>
		<path fill="#18A8AA" d="M136.869,91.949h-13.445c-0.63,0-1.143,0.545-1.143,1.221c0,0.673,0.513,1.22,1.143,1.22h12.303v4.148
			H108.72V94.39h5.495c0.63,0,1.141-0.547,1.141-1.22c0-0.676-0.511-1.221-1.141-1.221h-6.64c-0.633,0-1.147,0.545-1.147,1.221v6.59
			c0,0.674,0.515,1.22,1.147,1.22h0.688v19.285c0,8.214,6.261,14.893,13.958,14.893c7.695,0,13.963-6.679,13.963-14.893v-19.285
			h0.684c0.635,0,1.146-0.546,1.146-1.22v-6.59C138.014,92.494,137.503,91.949,136.869,91.949z M133.897,120.265
			c0,6.866-5.237,12.452-11.675,12.452c-6.433,0-11.672-5.586-11.672-12.452v-19.285h23.347V120.265z"/>
		<path fill="#18A8AA" d="M118.79,94.39c0.3,0,0.596-0.131,0.809-0.358c0.214-0.227,0.339-0.541,0.339-0.861
			c0-0.322-0.125-0.637-0.339-0.864c-0.213-0.225-0.509-0.356-0.809-0.356c-0.301,0-0.597,0.132-0.807,0.356
			c-0.217,0.228-0.337,0.542-0.337,0.864c0,0.32,0.12,0.635,0.337,0.861C118.193,94.259,118.489,94.39,118.79,94.39z"/>
		<path fill="#18A8AA" d="M117.504,128.264c0.63,0,1.143-0.547,1.143-1.22v-4.449c0-0.188,0.011-0.373,0.031-0.556h7.092
			c0.019,0.183,0.03,0.368,0.03,0.556v1.213h-2.948c-0.63,0-1.141,0.546-1.141,1.222c0,0.673,0.511,1.22,1.141,1.22h2.948v0.795
			c0,0.673,0.51,1.22,1.143,1.22c0.632,0,1.145-0.547,1.145-1.22v-4.449c0-2.313-1.05-4.509-2.805-5.866l-1.111-0.856l1.111-0.857
			c1.755-1.357,2.805-3.552,2.805-5.864v-4.448c0-0.674-0.513-1.222-1.145-1.222c-0.633,0-1.143,0.548-1.143,1.222v4.448
			c0,0.187-0.012,0.371-0.03,0.557h-7.092c-0.021-0.186-0.031-0.37-0.031-0.557v-1.215h2.945c0.63,0,1.143-0.546,1.143-1.219
			c0-0.676-0.513-1.222-1.143-1.222h-2.945v-0.793c0-0.674-0.513-1.222-1.143-1.222c-0.633,0-1.146,0.548-1.146,1.222v4.448
			c0,2.313,1.048,4.507,2.806,5.864l1.108,0.857l-1.108,0.856c-1.758,1.357-2.806,3.554-2.806,5.864v4.451
			C116.359,127.717,116.872,128.264,117.504,128.264z M119.634,112.146h5.176c-0.248,0.335-0.542,0.636-0.871,0.891l-1.717,1.327
			l-1.714-1.327C120.173,112.782,119.887,112.481,119.634,112.146z M120.508,118.705l1.714-1.325l1.717,1.325
			c0.329,0.257,0.623,0.558,0.871,0.893h-5.176C119.887,119.263,120.173,118.962,120.508,118.705z"/>
		<path fill="#18A8AA" d="M126.037,78.638c0.631,0,1.146-0.548,1.146-1.221v-1.763c0-0.676-0.515-1.222-1.146-1.222
			c-0.63,0-1.145,0.546-1.145,1.222v1.763C124.892,78.09,125.407,78.638,126.037,78.638z"/>
		<path fill="#18A8AA" d="M128.82,81.696h1.872c0.63,0,1.143-0.547,1.143-1.221c0-0.675-0.513-1.222-1.143-1.222h-1.872
			c-0.637,0-1.146,0.547-1.146,1.222C127.674,81.149,128.183,81.696,128.82,81.696z"/>
		<path fill="#18A8AA" d="M121.448,81.696h1.746c0.63,0,1.145-0.547,1.145-1.221c0-0.675-0.515-1.222-1.145-1.222h-1.746
			c-0.63,0-1.146,0.547-1.146,1.222C120.302,81.149,120.818,81.696,121.448,81.696z"/>
		<path fill="#18A8AA" d="M126.037,86.519c0.631,0,1.146-0.547,1.146-1.223v-1.418c0-0.676-0.515-1.222-1.146-1.222
			c-0.63,0-1.145,0.546-1.145,1.222v1.418C124.892,85.972,125.407,86.519,126.037,86.519z"/>
		<path fill="#18A8AA" d="M94.091,113.491c-0.63,0-1.143,0.547-1.143,1.221v1.764c0,0.674,0.513,1.22,1.143,1.22
			c0.635,0,1.147-0.546,1.147-1.22v-1.764C95.239,114.038,94.726,113.491,94.091,113.491z"/>
		<path fill="#18A8AA" d="M98.747,118.313h-1.872c-0.635,0-1.147,0.549-1.147,1.222s0.513,1.221,1.147,1.221h1.872
			c0.635,0,1.147-0.548,1.147-1.221S99.381,118.313,98.747,118.313z"/>
		<path fill="#18A8AA" d="M91.25,118.313h-1.746c-0.63,0-1.146,0.549-1.146,1.222s0.516,1.221,1.146,1.221h1.746
			c0.63,0,1.147-0.548,1.147-1.221S91.88,118.313,91.25,118.313z"/>
		<path fill="#18A8AA" d="M94.091,121.714c-0.63,0-1.143,0.549-1.143,1.222v1.421c0,0.673,0.513,1.22,1.143,1.22
			c0.635,0,1.147-0.547,1.147-1.22v-1.421C95.239,122.263,94.726,121.714,94.091,121.714z"/>
		<path fill="#18A8AA" d="M106.869,89.027c0.551,0.318,1.149,0.481,1.759,0.481c0.349,0,0.7-0.056,1.044-0.162
			c0.944-0.297,1.721-0.966,2.193-1.887c0.47-0.922,0.575-1.984,0.3-2.99c-0.573-2.079-2.624-3.271-4.571-2.661
			c-0.944,0.298-1.724,0.967-2.193,1.889c-0.284,0.551-0.431,1.154-0.451,1.764l-4.901,1.538c-0.723-1.278-1.913-2.221-3.317-2.558
			v-4.117c1.475-0.514,2.536-1.992,2.536-3.733c0-2.167-1.649-3.927-3.677-3.927c-2.033,0-3.685,1.761-3.685,3.927
			c0,1.741,1.064,3.219,2.537,3.732v4.118c-1.952,0.469-3.494,2.11-3.931,4.194h-3.904c-0.483-1.571-1.868-2.707-3.499-2.707
			c-2.03,0-3.684,1.763-3.684,3.928c0,2.166,1.653,3.928,3.684,3.928c1.631,0,3.016-1.136,3.499-2.708h3.904
			c0.237,1.13,0.798,2.132,1.577,2.887l-3.553,6.68c-0.237-0.051-0.483-0.079-0.732-0.079c-2.03,0-3.684,1.764-3.684,3.93
			c0,2.165,1.653,3.927,3.684,3.927c2.028,0,3.682-1.762,3.682-3.927c0-1.018-0.365-1.946-0.962-2.644l3.553-6.68
			c0.479,0.154,0.987,0.238,1.514,0.238c2.868,0,5.203-2.49,5.203-5.552c0-0.183-0.009-0.361-0.024-0.54l4.829-1.515
			C105.919,88.305,106.351,88.725,106.869,89.027z M87.803,105.979c-0.768,0-1.394-0.67-1.394-1.486c0-0.82,0.626-1.487,1.394-1.487
			c0.769,0,1.396,0.667,1.396,1.487C89.2,105.31,88.572,105.979,87.803,105.979z M95.589,75.104c0.768,0,1.394,0.667,1.394,1.487
			c0,0.819-0.626,1.486-1.394,1.486c-0.771,0-1.394-0.667-1.394-1.486C94.196,75.771,94.819,75.104,95.589,75.104z M83.108,91.343
			c-0.768,0-1.394-0.667-1.394-1.486c0-0.82,0.626-1.486,1.394-1.486c0.771,0,1.394,0.666,1.394,1.486
			C84.501,90.676,83.878,91.343,83.108,91.343z M95.589,92.968c-1.61,0-2.921-1.397-2.921-3.111c0-1.717,1.311-3.11,2.921-3.11
			c1.607,0,2.913,1.394,2.913,3.11C98.502,91.57,97.197,92.968,95.589,92.968z M108.24,84.151c0.131-0.041,0.262-0.062,0.393-0.062
			c0.601,0,1.161,0.423,1.339,1.066c0.213,0.788-0.21,1.617-0.946,1.848c-0.354,0.113-0.733,0.067-1.062-0.121
			c-0.327-0.19-0.562-0.505-0.668-0.887C107.079,85.211,107.505,84.383,108.24,84.151z"/>
	</g>
	<g>
		<g>
			<g>
				<path fill="#18A8AA" d="M74.564,33.289c-0.051-0.274-0.261-0.491-0.522-0.537c-0.267-0.047-0.536,0.097-0.662,0.349
					c-0.124,0.247-0.09,0.556,0.082,0.767c0.177,0.215,0.472,0.289,0.723,0.179C74.459,33.925,74.623,33.602,74.564,33.289
					L74.564,33.289z"/>
				<path fill="#18A8AA" d="M73.733,35.842c-0.34-0.101-0.691,0.109-0.786,0.47c-1.167,4.462-5.023,7.578-9.375,7.578
					c-5.367,0-9.731-4.656-9.731-10.378c0-4.688,2.915-8.692,7.253-9.963c0.275-0.08,0.469-0.349,0.469-0.653v-3.011h4.021v3.011
					c0,0.305,0.19,0.573,0.467,0.653c3.328,0.975,5.892,3.591,6.847,7c0.102,0.358,0.456,0.561,0.794,0.454
					c0.335-0.108,0.529-0.486,0.426-0.844c-1.042-3.696-3.739-6.568-7.262-7.769v-2.505h1.54c0.352,0,0.634-0.305,0.634-0.679
					v-3.344c0-0.374-0.282-0.678-0.634-0.678h-1.438l0.531-3.865c0.024-0.195-0.028-0.392-0.148-0.541
					c-0.121-0.149-0.296-0.235-0.481-0.235h-6.571c-0.187,0-0.363,0.086-0.483,0.235c-0.121,0.148-0.174,0.346-0.148,0.541
					l0.531,3.865h-1.437c-0.35,0-0.635,0.304-0.635,0.678v3.344c0,0.374,0.285,0.679,0.635,0.679h1.539v2.505
					c-4.638,1.579-7.721,5.987-7.721,11.123c0,6.471,4.937,11.734,11.002,11.734c2.451,0,4.774-0.84,6.709-2.43
					c1.875-1.542,3.255-3.721,3.89-6.141C74.266,36.316,74.069,35.942,73.733,35.842L73.733,35.842z M61.024,11.899h5.103
					l-0.454,3.286h-4.198L61.024,11.899z M59.387,16.542h8.374v1.988h-8.374V16.542z"/>
				<path fill="#18A8AA" d="M63.128,27.896c0-1.154-0.879-2.094-1.964-2.094c-1.082,0-1.962,0.94-1.962,2.094
					c0,1.153,0.881,2.094,1.962,2.094C62.249,29.989,63.128,29.049,63.128,27.896z M60.473,27.896c0-0.407,0.31-0.737,0.691-0.737
					c0.382,0,0.693,0.331,0.693,0.737c0,0.406-0.312,0.737-0.693,0.737C60.783,28.633,60.473,28.302,60.473,27.896z"/>
				<path fill="#18A8AA" d="M55.475,32.153c-0.061,0.447-0.096,0.903-0.096,1.359c0,4.818,3.677,8.738,8.194,8.738
					c4.52,0,8.194-3.92,8.194-8.738c0-0.457-0.032-0.914-0.096-1.359c-0.049-0.331-0.318-0.574-0.629-0.574h-0.951
					c0.001-0.049,0.001-0.098,0.001-0.149c0-1.645-1.25-2.982-2.794-2.982c-1.54,0-2.797,1.337-2.797,2.982
					c0,0.051,0.002,0.1,0.005,0.149h-8.402C55.793,31.579,55.524,31.823,55.475,32.153z M56.671,32.935h8.609
					c0.209,0,0.406-0.108,0.523-0.294c0.119-0.185,0.147-0.418,0.072-0.626c-0.068-0.188-0.101-0.383-0.101-0.584
					c0-0.898,0.681-1.627,1.523-1.627c0.841,0,1.527,0.729,1.527,1.627c0,0.202-0.034,0.397-0.102,0.584
					c-0.076,0.208-0.051,0.442,0.068,0.626c0.117,0.186,0.314,0.294,0.523,0.294h1.163c0.012,0.192,0.019,0.385,0.019,0.578
					c0,4.071-3.108,7.383-6.924,7.383c-3.815,0-6.922-3.313-6.922-7.383C56.65,33.32,56.657,33.127,56.671,32.935L56.671,32.935z"/>
			</g>
		</g>
	</g>
</g>
</svg>
