<?xml version="1.0" encoding="utf-8"?>
<!-- Generator: Adobe Illustrator 16.0.0, SVG Export Plug-In . SVG Version: 6.00 Build 0)  -->
<!DOCTYPE svg PUBLIC "-//W3C//DTD SVG 1.1//EN" "http://www.w3.org/Graphics/SVG/1.1/DTD/svg11.dtd">
<svg version="1.1" id="Layer_1" xmlns="http://www.w3.org/2000/svg" xmlns:xlink="http://www.w3.org/1999/xlink" x="0px" y="0px"
	 width="152.8px" height="155px" viewBox="0 0 152.8 155" enable-background="new 0 0 152.8 155" xml:space="preserve">
<g>
	<path fill="#18A8AA" d="M126.846,89.745V54.743c0.75,0,1.506-0.095,2.248-0.294c2.254-0.598,4.132-2.04,5.303-4.054
		c2.408-4.162,0.983-9.509-3.181-11.922L73.058,4.895c-2.714-1.608-6.094-1.625-8.82-0.047L5.994,38.475
		c-4.16,2.411-5.585,7.758-3.175,11.92c1.166,2.014,3.049,3.456,5.302,4.054c0.743,0.199,1.497,0.298,2.245,0.3v57.579
		c-3.47,1.209-5.967,4.512-5.967,8.388c0,4.897,3.984,8.882,8.88,8.882h74.633c3.86,13.352,16.195,23.144,30.773,23.144
		c17.66,0,32.027-14.365,32.027-32.025C150.711,105.876,140.562,93.365,126.846,89.745L126.846,89.745z M7.858,47.477
		c-0.802-1.387-0.33-3.164,1.052-3.961L67.153,9.889c0.912-0.529,2.038-0.52,2.943,0.02c0.01,0.006,0.024,0.015,0.034,0.021
		l58.168,33.583c1.384,0.799,1.86,2.577,1.057,3.963c-0.388,0.668-1.014,1.147-1.762,1.349c-0.747,0.198-1.525,0.093-2.205-0.298
		L70.063,16.583c-0.902-0.52-2.01-0.52-2.911,0l-16.318,9.421c-1.392,0.806-1.871,2.586-1.068,3.978
		c0.805,1.392,2.587,1.87,3.979,1.064l14.864-8.58l52.415,30.265v36.041c-0.771-0.053-1.551-0.085-2.339-0.085
		c-14.578,0-26.913,9.794-30.773,23.146h-1.838V73.988c0-1.607-1.3-2.916-2.907-2.916H54.049c-1.608,0-2.912,1.308-2.912,2.916
		v37.847H16.191V52.732l14.858-8.58c1.395-0.806,1.871-2.586,1.065-3.978c-0.802-1.395-2.583-1.872-3.975-1.065L11.819,48.53
		c-0.67,0.389-1.45,0.493-2.202,0.295c-0.745-0.202-1.37-0.681-1.762-1.349H7.858z M80.252,111.835H56.963V76.897h23.289V111.835z
		 M13.278,123.771c-1.687,0-3.057-1.368-3.057-3.056c0-1.683,1.37-3.059,3.057-3.059h73.525c-0.094,1.007-0.145,2.025-0.145,3.059
		c0,1.03,0.051,2.05,0.145,3.056H13.278z M118.684,146.919c-14.446,0-26.203-11.753-26.203-26.203
		c0-14.448,11.757-26.205,26.203-26.205c14.448,0,26.202,11.757,26.202,26.205C144.886,135.166,133.132,146.919,118.684,146.919z"/>
	<path fill="#18A8AA" d="M68.608,62.34c6.421,0,11.644-5.225,11.644-11.645c0-6.424-5.223-11.648-11.644-11.648
		c-6.423,0-11.645,5.224-11.645,11.648C56.963,57.115,62.185,62.34,68.608,62.34z M68.608,44.87c3.209,0,5.821,2.615,5.821,5.825
		c0,3.21-2.612,5.822-5.821,5.822c-3.211,0-5.823-2.612-5.823-5.822C62.786,47.485,65.397,44.87,68.608,44.87z"/>
	<path fill="#18A8AA" d="M40.943,37.988c1.608,0,2.91-1.301,2.91-2.909s-1.302-2.913-2.91-2.913h-0.003
		c-1.608,0-2.91,1.304-2.91,2.913S39.336,37.988,40.943,37.988z"/>
	<path fill="#18A8AA" d="M135.736,107.434c-1.65-1.649-3.841-2.56-6.175-2.56c-2.332,0-4.527,0.91-6.175,2.56l-8.036,8.035
		l-1.366-1.366c-1.647-1.648-3.843-2.557-6.177-2.557c-2.332,0-4.525,0.908-6.173,2.557c-3.407,3.407-3.407,8.948,0,12.354
		l7.541,7.542c1.647,1.647,3.843,2.556,6.175,2.556s4.527-0.911,6.175-2.556l14.211-14.213c1.647-1.65,2.561-3.845,2.561-6.177
		S137.383,109.084,135.736,107.434L135.736,107.434z M131.617,115.669l-14.208,14.211c-0.553,0.549-1.282,0.853-2.059,0.853
		c-0.78,0-1.508-0.304-2.061-0.853l-7.539-7.542c-1.135-1.135-1.135-2.981,0-4.117c0.551-0.549,1.28-0.852,2.057-0.852
		c0.777,0,1.508,0.303,2.058,0.852l3.425,3.423c1.138,1.139,2.981,1.139,4.119,0l10.094-10.094c1.133-1.133,2.981-1.133,4.114,0
		c0.55,0.55,0.856,1.28,0.856,2.06S132.167,115.119,131.617,115.669z"/>
</g>
</svg>
