<?xml version="1.0" encoding="utf-8"?>
<!-- Generator: Adobe Illustrator 16.0.0, SVG Export Plug-In . SVG Version: 6.00 Build 0)  -->
<!DOCTYPE svg PUBLIC "-//W3C//DTD SVG 1.1//EN" "http://www.w3.org/Graphics/SVG/1.1/DTD/svg11.dtd">
<svg version="1.1" id="Layer_1" xmlns="http://www.w3.org/2000/svg" xmlns:xlink="http://www.w3.org/1999/xlink" x="0px" y="0px"
	 width="152.8px" height="155px" viewBox="0 0 152.8 155" enable-background="new 0 0 152.8 155" xml:space="preserve">
<g>
	<g>
		<path fill="#18A8AA" d="M45.938,95.947c-0.993,0-1.79,0.801-1.79,1.789v3.249c0,0.991,0.797,1.789,1.79,1.789
			c0.987,0,1.789-0.798,1.789-1.789v-3.249C47.726,96.748,46.925,95.947,45.938,95.947z"/>
		<path fill="#18A8AA" d="M79.597,128.912H5.691v-6.251h69.157c-0.714-1.155-1.367-2.349-1.964-3.579H60.297V71.599
			c0-2.959-2.409-5.369-5.369-5.369H22.625c-2.96,0-5.369,2.41-5.369,5.369v47.483h-7.158V39.935h6.253c0.988,0,1.79-0.8,1.79-1.79
			c0-0.987-0.802-1.79-1.79-1.79H5.691v-6.251h34.813c-0.141,1.022-0.212,2.066-0.212,3.125c0,1.06,0.071,2.103,0.212,3.126H24.702
			c-0.991,0-1.788,0.802-1.788,1.79c0,0.989,0.797,1.79,1.788,1.79h16.591c2.873,9.372,11.607,16.202,21.903,16.202
			c10.3,0,19.03-6.831,21.905-16.202h31.194v21.568c1.214,0.21,2.404,0.477,3.579,0.794V39.935h0.949
			c1.906,0,3.455-1.553,3.455-3.46v-6.489c0-1.91-1.549-3.46-3.455-3.46H85.101c-2.875-9.37-11.605-16.202-21.905-16.202
			c-10.296,0-19.03,6.833-21.903,16.202H5.571c-1.907,0-3.46,1.55-3.46,3.46v6.489c-0.017,2.314,2.208,3.801,4.408,3.46v79.147
			c-2.22-0.306-4.408,1.109-4.408,3.461v6.488c0,1.908,1.553,3.461,3.46,3.461h77.743C81.996,131.385,80.769,130.176,79.597,128.912
			z M40.568,69.81h14.36c0.988,0,1.791,0.804,1.791,1.79v47.483H40.568V69.81z M20.836,71.599c0-0.986,0.8-1.79,1.79-1.79h14.363
			v49.272H20.836V71.599z M85.89,30.104h34.813v6.251H85.89c0.137-1.023,0.215-2.066,0.215-3.126
			C86.105,32.17,86.027,31.126,85.89,30.104z M63.196,13.903c10.658,0,19.329,8.671,19.329,19.327
			c0,10.656-8.671,19.328-19.329,19.328c-10.659,0-19.326-8.671-19.326-19.328C43.87,22.574,52.537,13.903,63.196,13.903z"/>
		<path fill="#18A8AA" d="M63.736,41.937l8.168-8.167c2.525-2.505,2.493-6.753,0-9.246c-2.524-2.525-6.743-2.531-9.246,0
			l-8.17,8.167c-2.531,2.5-2.542,6.726,0,9.246C56.991,44.44,61.236,44.466,63.736,41.937z M65.188,27.053
			c1.129-1.146,3.047-1.139,4.185,0c1.134,1.134,1.145,3.054,0,4.185l-2.818,2.818l-4.184-4.182L65.188,27.053z M57.02,35.222
			l2.818-2.819l4.184,4.186l-2.816,2.817c-1.135,1.145-3.057,1.141-4.186,0C55.876,38.275,55.876,36.354,57.02,35.222z"/>
		<path fill="#18A8AA" d="M31.618,95.947c-0.989,0-1.789,0.801-1.789,1.789v3.249c0,0.991,0.8,1.789,1.789,1.789
			c0.989,0,1.792-0.798,1.792-1.789v-3.249C33.41,96.748,32.607,95.947,31.618,95.947z"/>
	</g>
	<circle fill="none" stroke="#18A8AA" stroke-width="2" stroke-miterlimit="10" cx="110.142" cy="102.073" r="40.547"/>
	<g>
		<path fill-rule="evenodd" clip-rule="evenodd" fill="#18A8AA" d="M117.984,130.705c-3.197,0-6.391,0.002-9.581-0.003
			c-0.92,0-0.92-0.009-0.741-0.881c0.175-0.849,0.175-0.841,1.003-0.841c6.228,0.003,12.454,0.008,18.682-0.001
			c1.86,0,3.195-1.147,3.548-2.957c0.077-0.421-0.023-0.497-0.435-0.495c-6.243,0.014-12.493,0.002-18.736,0.02
			c-0.476,0.004-0.633-0.093-0.615-0.597c0.043-1.135,0.013-1.138,1.143-1.138c6.047,0,12.094-0.005,18.143,0.01
			c0.444,0.005,0.562-0.093,0.557-0.544c-0.017-4.521-0.006-9.046-0.021-13.569c-0.004-0.442,0.093-0.568,0.549-0.554
			c1.182,0.034,1.182,0.011,1.182,1.198c0,4.985,0.005,9.978,0,14.966c0,3.17-2.203,5.383-5.361,5.386
			C124.195,130.707,121.088,130.707,117.984,130.705z"/>
		<path fill-rule="evenodd" clip-rule="evenodd" fill="#18A8AA" d="M109.397,116.089c0,2.1,0.006,4.196,0,6.297
			c-0.014,4.111-3.06,7.62-7.134,8.221c-1.307,0.192-2.602,0.146-3.891-0.181c-0.356-0.091-0.497-0.187-0.319-0.569
			c0.164-0.354,0.153-0.847,0.397-1.089c0.287-0.272,0.726,0.074,1.098,0.123c2.186,0.305,4.173-0.123,5.858-1.602
			c1.445-1.273,2.173-2.906,2.258-4.817c0.041-0.861-0.003-1.725,0.019-2.584c0.011-0.301-0.073-0.394-0.382-0.389
			c-1.18,0.018-2.368-0.004-3.55,0.014c-0.3,0.004-0.389-0.072-0.389-0.381c-0.018-1.349-0.032-1.349,1.299-1.349
			c0.879,0,1.756-0.013,2.636,0.008c0.3,0.007,0.382-0.077,0.386-0.386c0.018-1.345,0.03-1.345-1.298-1.345
			c-1.165,0-2.333-0.012-3.498,0.007c-0.304,0.004-0.389-0.079-0.389-0.385c-0.017-1.346-0.023-1.346,1.301-1.346
			c1.171,0,2.333,0,3.498,0c0.191,0,0.396,0.061,0.382-0.271c-0.054-1.773,0.112-3.551-0.107-5.322
			c-0.324-2.659-2.781-5.125-5.444-5.504c-2.454-0.347-4.628,0.186-6.395,1.997c-0.773,0.798-1.315,1.75-1.579,2.824
			c-0.102,0.404-0.271,0.427-0.581,0.338c-0.102-0.029-0.208-0.061-0.312-0.079c-0.985-0.2-0.985-0.2-0.676-1.133
			c1.153-3.485,4.347-5.707,8.079-5.792c4.063-0.09,7.319,2.559,8.345,5.864c0.245,0.789,0.394,1.593,0.394,2.425
			C109.394,111.82,109.397,113.954,109.397,116.089z"/>
		<path fill-rule="evenodd" clip-rule="evenodd" fill="#18A8AA" d="M119.522,107.445c2.566,0,5.131-0.002,7.698,0
			c0.867,0,1.131,0.26,1.131,1.104c0.002,2.423,0.002,4.846,0,7.269c0,0.824-0.272,1.101-1.076,1.101
			c-5.224,0.004-10.444-0.002-15.668,0.014c-0.406,0-0.504-0.099-0.493-0.497c0.021-1.236,0.003-1.236,1.251-1.236
			c4.578,0,9.153-0.005,13.727,0.012c0.449,0.002,0.56-0.106,0.549-0.555c-0.032-1.665-0.025-3.338,0-5.005
			c0.011-0.406-0.1-0.495-0.499-0.493c-4.827,0.015-9.65,0.002-14.479,0.021c-0.447,0-0.568-0.1-0.555-0.551
			c0.034-1.182,0.013-1.182,1.2-1.182C114.71,107.445,117.119,107.445,119.522,107.445z"/>
		<g>
			<path fill-rule="evenodd" clip-rule="evenodd" fill="#18A8AA" d="M101.903,92.81c-1.782-0.696-3.029-1.909-3.716-3.713
				c-0.137-0.368-0.426-0.613-0.861-0.605c-0.438,0.008-0.705,0.254-0.848,0.625c-0.679,1.78-1.901,3-3.677,3.68
				c-0.372,0.141-0.624,0.41-0.631,0.848c-0.009,0.462,0.278,0.699,0.648,0.895c0.676,0.363,1.343,0.742,2.021,1.099
				c0.229,0.121,0.394,0.284,0.515,0.517c0.373,0.711,0.769,1.411,1.147,2.118c0.189,0.338,0.438,0.563,0.922,0.558
				c0.335-0.001,0.615-0.226,0.75-0.579c0.688-1.815,1.941-3.051,3.752-3.75c0.349-0.138,0.572-0.415,0.579-0.823
				C102.514,93.238,102.275,92.954,101.903,92.81z M97.351,96.103c-0.476-1.17-1.236-1.987-2.45-2.422
				c1.151-0.497,1.996-1.231,2.429-2.456c0.464,1.195,1.255,1.981,2.454,2.435C98.595,94.117,97.793,94.894,97.351,96.103z"/>
			<path fill-rule="evenodd" clip-rule="evenodd" fill="#18A8AA" d="M90.121,87.026c-1.19-0.528-2.048-1.317-2.504-2.535
				c-0.03-0.066-0.078-0.122-0.119-0.18c-0.173-0.224-0.396-0.361-0.689-0.349c-0.469-0.017-0.736,0.265-0.888,0.651
				c-0.44,1.122-1.207,1.911-2.338,2.337c-0.017,0.006-0.032,0.015-0.047,0.024c-0.365,0.176-0.62,0.427-0.624,0.859
				c0,0.434,0.259,0.714,0.626,0.854c1.167,0.451,1.968,1.247,2.4,2.416c0.002,0.019,0.018,0.032,0.025,0.046
				c0.45,0.776,1.286,0.795,1.661-0.024c0.513-1.146,1.258-2.006,2.452-2.439c0.018-0.005,0.032-0.017,0.048-0.024
				C90.873,88.214,90.909,87.377,90.121,87.026z M86.795,89.047c-0.246-0.604-0.613-0.966-1.205-1.22
				c0.601-0.24,0.952-0.608,1.216-1.203c0.235,0.604,0.605,0.957,1.206,1.211C87.407,88.081,87.042,88.443,86.795,89.047z"/>
		</g>
		<path fill-rule="evenodd" clip-rule="evenodd" fill="#18A8AA" d="M123.129,121.229c-1.558,0-3.123-0.013-4.681,0.007
			c-0.353,0.005-0.445-0.086-0.441-0.44c0.008-1.288-0.011-1.291,1.303-1.291c2.854,0,5.701,0.012,8.555-0.01
			c0.404-0.004,0.508,0.092,0.499,0.496c-0.025,1.238-0.004,1.238-1.253,1.238C125.787,121.229,124.458,121.229,123.129,121.229z"/>
		<path fill-rule="evenodd" clip-rule="evenodd" fill="#18A8AA" d="M108.537,85.852c0-1.005,0.014-2.01-0.004-3.016
			c-0.007-0.301,0.075-0.381,0.38-0.383c1.349-0.017,1.349-0.027,1.349,1.3c0,1.723-0.009,3.445,0.008,5.167
			c0.005,0.351-0.088,0.443-0.438,0.439c-1.294-0.005-1.294,0.007-1.294-1.301C108.537,87.323,108.537,86.589,108.537,85.852z"/>
		<path fill-rule="evenodd" clip-rule="evenodd" fill="#18A8AA" d="M111.985,85.906c0-1.023,0.013-2.047-0.011-3.07
			c-0.002-0.306,0.086-0.381,0.391-0.383c1.342-0.017,1.342-0.027,1.342,1.303c0,1.72-0.009,3.444,0.011,5.166
			c0.002,0.353-0.095,0.441-0.445,0.438c-1.287-0.005-1.287,0.007-1.287-1.303C111.985,87.342,111.985,86.621,111.985,85.906z"/>
		<path fill-rule="evenodd" clip-rule="evenodd" fill="#18A8AA" d="M115.43,85.906c0-1.023,0.013-2.046-0.009-3.07
			c-0.004-0.301,0.082-0.381,0.385-0.383c1.349-0.017,1.349-0.027,1.349,1.3c0,1.722-0.011,3.445,0.008,5.167
			c0.005,0.351-0.088,0.443-0.444,0.439c-1.288-0.005-1.288,0.007-1.288-1.301C115.43,87.342,115.43,86.624,115.43,85.906z"/>
		<path fill-rule="evenodd" clip-rule="evenodd" fill="#18A8AA" d="M118.876,85.888c0-1.023,0.011-2.046-0.003-3.066
			c-0.004-0.267,0.046-0.362,0.346-0.372c1.381-0.032,1.381-0.042,1.381,1.324c0,1.721-0.007,3.445,0.007,5.165
			c0.004,0.316-0.055,0.425-0.404,0.425c-1.326,0-1.326,0.015-1.326-1.322C118.876,87.323,118.876,86.604,118.876,85.888z"/>
		<path fill-rule="evenodd" clip-rule="evenodd" fill="#18A8AA" d="M122.324,85.903c0-1.021,0.009-2.046-0.009-3.068
			c-0.004-0.307,0.087-0.378,0.383-0.382c1.35-0.017,1.35-0.027,1.35,1.303c0,1.724-0.015,3.444,0.009,5.168
			c0.006,0.355-0.097,0.439-0.442,0.436c-1.29-0.005-1.29,0.007-1.29-1.303C122.324,87.339,122.324,86.621,122.324,85.903z"/>
		<path fill-rule="evenodd" clip-rule="evenodd" fill="#18A8AA" d="M127.496,85.906c0,1.021-0.013,2.046,0.002,3.066
			c0.005,0.305-0.077,0.385-0.38,0.387c-1.346,0.016-1.346,0.027-1.346-1.301c0-1.724,0.008-3.443-0.009-5.164
			c-0.007-0.352,0.082-0.446,0.435-0.445c1.291,0.01,1.298-0.006,1.298,1.304C127.496,84.471,127.496,85.188,127.496,85.906z"/>
		<path fill-rule="evenodd" clip-rule="evenodd" fill="#18A8AA" d="M113.763,119.505c0.731,0,1.467,0.012,2.203-0.004
			c0.262-0.007,0.321,0.07,0.333,0.328c0.056,1.4,0.063,1.4-1.354,1.4c-1.147,0-2.293-0.013-3.446,0.007
			c-0.303,0.005-0.382-0.082-0.385-0.387c-0.015-1.345-0.025-1.345,1.303-1.345C112.862,119.505,113.313,119.505,113.763,119.505z"
			/>
		<path fill-rule="evenodd" clip-rule="evenodd" fill="#18A8AA" d="M132.659,99.636c0-2.409-1.587-4.106-3.987-4.243
			c-0.26-0.015-0.331-0.084-0.324-0.338c0.017-0.591,0.041-1.186-0.007-1.776c-0.028-0.415,0.11-0.496,0.503-0.489
			c1.322,0.016,2.092-0.771,2.092-2.099c0.007-2.837,0.007-5.669,0-8.508c0-1.901-1.258-3.169-3.156-3.169
			c-4.86-0.001-9.724,0-14.587,0c-1.214,0-1.186,0-1.22,1.216c-0.009,0.44,0.129,0.517,0.533,0.517
			c5.024-0.013,10.048-0.009,15.074-0.009c1.154,0,1.633,0.48,1.633,1.627c0.005,2.693-0.006,5.386,0.014,8.078
			c0.005,0.489-0.116,0.647-0.63,0.643c-3.518-0.02-7.035-0.009-10.552-0.009c-3.554,0-7.108-0.008-10.659,0.007
			c-0.453,0.002-0.579-0.138-0.579-0.581c0.021-2.548,0.007-5.098,0.007-7.645c0-1.831,0.294-2.12,2.117-2.12
			c1.374,0,1.36,0,1.339-1.363c-0.004-0.329-0.121-0.376-0.403-0.366c-0.593,0.019-1.185,0.002-1.774,0.006
			c-1.683,0.013-2.993,1.324-2.996,3.005c-0.009,2.925-0.004,5.85,0,8.779c0,0.194,0.009,0.396,0.061,0.58
			c0.26,0.915,0.983,1.432,2.026,1.411c0.384-0.007,0.54,0.063,0.506,0.486c-0.046,0.535-0.039,1.078-0.005,1.614
			c0.026,0.387-0.066,0.501-0.485,0.51c-1.917,0.037-3.657,1.729-3.825,3.64c-0.044,0.474,0.017,0.751,0.589,0.657
			c0.257-0.04,0.536-0.021,0.804-0.002c0.253,0.022,0.313-0.057,0.344-0.317c0.153-1.419,1.097-2.267,2.51-2.269
			c6.928-0.005,13.856-0.005,20.78,0c1.521,0.002,2.525,1.008,2.536,2.527c0.009,0.987-0.023,1.975,0.015,2.96
			c0.016,0.449-0.099,0.555-0.553,0.553c-6.602-0.017-13.206-0.011-19.808-0.011c-1.192,0-1.169,0-1.206,1.182
			c-0.008,0.447,0.106,0.555,0.556,0.553c6.567-0.019,13.135-0.014,19.702-0.006c0.423,0,0.987-0.196,1.229,0.09
			c0.207,0.239,0.064,0.785,0.064,1.194c0.007,1.31,0,1.295,1.296,1.304c0.353,0.002,0.443-0.094,0.437-0.443
			C132.655,104.553,132.664,102.093,132.659,99.636z M126.195,95.391c-2.745-0.015-5.491-0.007-8.234-0.007
			c-2.689,0-5.382-0.012-8.075,0.009c-0.404,0.005-0.525-0.092-0.497-0.495c0.041-0.555,0.037-1.114,0-1.668
			c-0.018-0.358,0.097-0.44,0.442-0.438c3.556,0.012,7.107,0.008,10.661,0.008c1.901,0,3.807,0.008,5.706-0.008
			c0.352-0.004,0.462,0.085,0.438,0.438c-0.03,0.574-0.03,1.149,0.004,1.724C126.66,95.309,126.545,95.393,126.195,95.391z"/>
		<path fill-rule="evenodd" clip-rule="evenodd" fill="#18A8AA" d="M91.459,110.029c-5.842-0.014-10.476,4.539-10.488,10.296
			c-0.011,5.734,4.578,10.364,10.292,10.38c5.703,0.018,10.374-4.587,10.387-10.244C101.658,114.719,97.087,110.042,91.459,110.029z
			 M97.629,126.202c-0.832,0.858-0.818,0.872-1.659,0.031c-2.108-2.105-4.219-4.209-6.313-6.326
			c-0.264-0.27-0.419-0.297-0.648,0.006c-0.261,0.339-0.833,0.573-0.806,0.939c0.02,0.316,0.515,0.601,0.809,0.891
			c2.065,2.067,4.137,4.135,6.206,6.208c-2.613,1.598-7.001,1.447-9.952-1.463c-2.938-2.898-3.187-7.303-1.546-10.041
			c0.853,0.857,1.712,1.7,2.548,2.563c0.217,0.226,0.342,0.224,0.54-0.004c0.288-0.339,0.821-0.624,0.855-0.974
			c0.039-0.273-0.516-0.621-0.82-0.925c-0.646-0.65-1.283-1.302-1.946-1.938c-0.192-0.187-0.205-0.301-0.022-0.517
			c0.891-1.039,0.882-1.044,1.843-0.082c3.63,3.627,7.253,7.262,10.895,10.878C97.911,125.748,97.915,125.908,97.629,126.202z
			 M87.502,112.709c2.566-1.526,6.813-1.327,9.701,1.394c2.934,2.768,3.427,7.124,1.77,10.093
			C95.147,120.366,91.317,116.529,87.502,112.709z"/>
	</g>
</g>
</svg>
